<?xml version="1.0" encoding="utf-8"?>
<!-- Generator: Adobe Illustrator 22.0.1, SVG Export Plug-In . SVG Version: 6.00 Build 0)  -->
<svg version="1.1" id="Layer_2" xmlns="http://www.w3.org/2000/svg" xmlns:xlink="http://www.w3.org/1999/xlink" x="0px" y="0px"
	 viewBox="0 0 140.4 37.8" style="enable-background:new 0 0 140.4 37.8;" xml:space="preserve">
<style type="text/css">
	.st0{fill:#E7E7E7;}
	.st1{fill:#1A1A1A;}
	.st2{clip-path:url(#SVGID_2_);}
	.st3{filter:url(#Adobe_OpacityMaskFilter);}
	.st4{clip-path:url(#SVGID_6_);}
	.st5{fill-rule:evenodd;clip-rule:evenodd;fill:#F5333F;}
	.st6{fill:#006CD8;}
	.st7{fill:#FFFFFF;}
	.st8{fill:none;stroke:#FFFFFF;stroke-miterlimit:10;}
	.st9{fill:none;stroke:#FFFFFF;stroke-width:0.75;stroke-linecap:round;stroke-miterlimit:10;stroke-dasharray:0,2,20,0,0,0;}
	.st10{fill:#80B5EB;}
	.st11{fill:#231F20;}
	.st12{fill:none;stroke:#231F20;stroke-width:1.2379;stroke-miterlimit:10;}
	.st13{fill:none;stroke:#231F20;stroke-width:1.2379;stroke-linecap:round;stroke-miterlimit:10;}
	.st14{clip-path:url(#SVGID_12_);}
	.st15{fill-rule:evenodd;clip-rule:evenodd;fill:#F23645;}
	.st16{fill:none;stroke:#006CD8;stroke-miterlimit:10;}
	.st17{clip-path:url(#SVGID_16_);}
	.st18{opacity:0.8;fill:#231F20;}
	.st19{fill:none;stroke:#231F20;stroke-width:0.5;stroke-miterlimit:10;}
	.st20{fill:none;stroke:#231F20;stroke-width:5.079;stroke-miterlimit:10;}
	.st21{fill:none;stroke:#231F20;stroke-width:5.079;stroke-linecap:round;stroke-miterlimit:10;}
	.st22{clip-path:url(#SVGID_32_);}
	.st23{filter:url(#Adobe_OpacityMaskFilter_1_);}
	.st24{clip-path:url(#SVGID_36_);}
	.st25{fill-rule:evenodd;clip-rule:evenodd;fill:#FFFFFF;}
</style>
<g>
	<path class="st5" d="M0,37.8l19.4,0c2.1-1.3,32.7-31.1-8-37.8c-0.2,0-0.3,0.2-0.1,0.3C18,2.8,40,13.4,0,37.8"/>
	<path class="st7" d="M46.6,9.4h5.6v12.5c0,2.3-0.6,4.2-1.8,5.6c-0.7,0.8-1.6,1.5-2.6,2c-1.1,0.5-2.2,0.7-3.3,0.7
		c-2.2,0-4.1-0.8-5.6-2.2c-1.5-1.5-2.3-3.3-2.3-5.5c0-2.1,0.8-3.9,2.3-5.5c1.5-1.5,3.3-2.3,5.4-2.3c0.3,0,0.8,0,1.5,0.1v6.2
		c-0.5-0.4-0.9-0.5-1.4-0.5c-0.6,0-1.1,0.2-1.5,0.6c-0.4,0.4-0.6,0.9-0.6,1.5c0,0.6,0.2,1.1,0.6,1.5c0.4,0.4,0.9,0.6,1.5,0.6
		c1.4,0,2.2-1,2.2-3V9.4z"/>
	<path class="st7" d="M61.8,14.6c2.1,0,3.9,0.8,5.5,2.3c1.5,1.5,2.3,3.4,2.3,5.5c0,2.2-0.8,4-2.3,5.5c-1.5,1.5-3.4,2.3-5.6,2.3
		c-2.2,0-4-0.8-5.6-2.3c-1.5-1.5-2.3-3.4-2.3-5.5c0-2.2,0.8-4,2.3-5.5C57.6,15.4,59.5,14.6,61.8,14.6 M57.8,8.3
		c0.8,0,1.5,0.2,2.1,0.7c0.6,0.5,0.8,1.1,0.8,1.9c0,0.7-0.3,1.4-0.9,1.9c-0.6,0.6-1.3,0.8-2,0.8c-0.7,0-1.4-0.3-1.9-0.8
		c-0.6-0.6-0.8-1.2-0.8-1.9c0-0.7,0.3-1.3,0.8-1.8C56.4,8.6,57.1,8.3,57.8,8.3 M61.6,20.2c-0.6,0-1.1,0.2-1.5,0.7
		c-0.4,0.4-0.6,1-0.6,1.6c0,0.6,0.2,1.2,0.6,1.6c0.4,0.4,0.9,0.7,1.5,0.7c0.6,0,1.1-0.2,1.5-0.7c0.4-0.4,0.6-1,0.6-1.6
		c0-0.6-0.2-1.2-0.6-1.6C62.7,20.4,62.2,20.2,61.6,20.2 M65.3,8.3c0.8,0,1.5,0.2,2.1,0.7c0.5,0.5,0.8,1.1,0.8,1.9
		c0,0.7-0.3,1.4-0.9,1.9c-0.6,0.6-1.3,0.8-2,0.8c-0.7,0-1.4-0.3-1.9-0.8c-0.6-0.6-0.8-1.2-0.8-1.9c0-0.7,0.3-1.3,0.8-1.8
		C63.9,8.6,64.6,8.3,65.3,8.3"/>
	<path class="st7" d="M84.5,29.9h-5.6v-8.4c0-0.9-0.4-1.3-1.1-1.3c-0.7,0-1.1,0.4-1.1,1.3v8.4h-5.6v-8.3c0-1.9,0.6-3.6,1.9-4.9
		c1.3-1.3,2.9-2,4.7-2c2.1,0,3.9,0.8,5.1,2.3c1,1.2,1.5,2.9,1.5,5.1V29.9z"/>
	<path class="st7" d="M107.4,29.9h-5.6v-8.1c0-0.6-0.1-1.1-0.2-1.3c-0.1-0.2-0.4-0.4-0.7-0.4c-0.6,0-0.9,0.6-0.9,1.7v8.1h-5.6v-8.1
		c0-0.6-0.1-1.1-0.2-1.3c-0.1-0.2-0.4-0.4-0.7-0.4c-0.6,0-0.9,0.6-0.9,1.7v8.1h-5.6v-9.2c0-1.7,0.6-3.1,1.7-4.3
		c1.1-1.2,2.5-1.8,4.1-1.8c1.7,0,3.1,0.7,4.5,2.1c1.5-1.4,2.9-2.1,4.4-2.1c1.9,0,3.4,0.7,4.5,2c0.9,1.1,1.3,2.6,1.3,4.6V29.9z"/>
	<path class="st7" d="M124.5,23.3H116c-0.1-0.4-0.2-0.8-0.2-1.2c0-0.5,0.1-1,0.3-1.5h2.9c-0.2-1.1-0.8-1.7-1.9-1.7
		c-0.7,0-1.3,0.3-1.7,0.9c-0.4,0.6-0.7,1.4-0.7,2.3c0,1,0.2,1.8,0.6,2.4c0.4,0.6,1,0.9,1.7,0.9c0.6,0,1.1-0.3,1.6-0.8l3.2,3.8
		c-1.5,1.2-3.1,1.8-5,1.8c-2.2,0-4.1-0.7-5.6-2.2c-1.5-1.5-2.3-3.3-2.3-5.5c0-2.2,0.8-4,2.3-5.5c1.5-1.5,3.4-2.3,5.6-2.3
		c2.2,0,4,0.7,5.5,2.2c1.5,1.5,2.2,3.3,2.2,5.5C124.5,22.5,124.5,22.8,124.5,23.3"/>
	<polygon class="st7" points="139.7,14.9 135.1,24 140.4,24 140.4,29.9 126,29.9 130.6,20.8 125.8,20.8 125.8,14.9 	"/>
</g>
</svg>
