<?xml version="1.0" encoding="utf-8"?>
<!-- Generator: Adobe Illustrator 25.2.3, SVG Export Plug-In . SVG Version: 6.00 Build 0)  -->
<svg version="1.1" id="Layer_1" xmlns="http://www.w3.org/2000/svg" xmlns:xlink="http://www.w3.org/1999/xlink" x="0px" y="0px"
	 viewBox="0 0 40 30" style="enable-background:new 0 0 40 30;" xml:space="preserve">
<style type="text/css">
	.st0{fill:#FFFFFF;}
</style>
<path class="st0" d="M15,6c-0.9,0.3-1.2,1.1-1.2,1.7c0,0.6,0.3,1.4,1.2,1.7c0.4-0.6,0.8-1.1,1.2-1.7C15.8,7.1,15.4,6.6,15,6z
	 M15.6,9.5c0.6,0.1,1.1,0.2,1.6,0.3c0-0.3-0.1-0.6-0.1-0.9c-0.2-0.2-0.4-0.5-0.6-0.7C16.3,8.6,15.9,9,15.6,9.5z M17,7.7
	c0.1,0.1,0.1,0.2,0.2,0.2c0-0.1,0-0.2,0-0.2c0-0.1,0-0.2,0-0.2C17.1,7.5,17,7.6,17,7.7z M15.6,3.3c-0.4,0.4-0.8,1.2-0.3,2
	c0.7-0.1,1.4-0.3,2-0.3c0.1-0.7,0.2-1.4,0.3-2c-0.3-0.1-0.5-0.2-0.8-0.2C16.4,2.8,15.9,3,15.6,3.3z M15.6,5.9c0.3,0.5,0.6,0.9,1,1.4
	C16.8,7,17,6.7,17.2,6.5c0-0.3,0-0.6,0.1-0.9C16.7,5.7,16.2,5.7,15.6,5.9z M15.3,10c-0.4,0.8-0.1,1.6,0.3,2c0.4,0.4,1.2,0.8,2,0.3
	c-0.1-0.7-0.3-1.4-0.3-2C16.7,10.3,16,10.1,15.3,10z M21.2,4.9c0.3,0,0.6,0,0.9,0.1c-0.1-0.5-0.2-1.1-0.3-1.6
	c-0.5,0.3-0.9,0.6-1.4,1C20.7,4.5,20.9,4.7,21.2,4.9z M18.2,5.5c-0.1,0-0.2,0-0.3,0c0,0.1,0,0.2,0,0.3c0.1-0.1,0.1-0.1,0.2-0.2
	C18,5.6,18.1,5.5,18.2,5.5z M22,5.7c0.1,0.1,0.1,0.1,0.2,0.2c0-0.1,0-0.2,0-0.3c-0.1,0-0.2,0-0.3,0C21.9,5.5,22,5.6,22,5.7z M18,9.7
	c-0.1-0.1-0.1-0.1-0.2-0.2c0,0.1,0,0.2,0,0.3c0.1,0,0.2,0,0.3,0C18.1,9.8,18,9.7,18,9.7z M19.8,4.8c0.1,0,0.2,0,0.2,0s0.2,0,0.2,0
	c-0.1-0.1-0.2-0.1-0.2-0.2C19.9,4.7,19.8,4.8,19.8,4.8z M21.7,2.7c-0.3-0.9-1.1-1.2-1.7-1.2c-0.6,0-1.4,0.3-1.7,1.2
	c0.6,0.4,1.1,0.8,1.7,1.2C20.5,3.5,21.1,3.1,21.7,2.7z M19.5,4.3c-0.4-0.3-0.9-0.7-1.4-1c-0.1,0.6-0.2,1.1-0.3,1.6
	c0.3,0,0.6-0.1,0.9-0.1C19.1,4.7,19.3,4.5,19.5,4.3z M23,7.7c-0.1-0.1-0.1-0.2-0.2-0.2c0,0.1,0,0.2,0,0.2c0,0.1,0,0.2,0,0.2
	C22.9,7.8,23,7.8,23,7.7z M22.7,9.8c0.5-0.1,1.1-0.2,1.6-0.3c-0.3-0.5-0.6-0.9-1-1.4c-0.2,0.2-0.4,0.5-0.6,0.7
	C22.8,9.1,22.8,9.4,22.7,9.8z M22.7,10.3c-0.1,0.7-0.2,1.4-0.3,2c0.8,0.4,1.6,0.1,2-0.3c0.4-0.4,0.8-1.2,0.3-2
	C24,10.1,23.3,10.3,22.7,10.3z M22.7,5.6c0,0.3,0.1,0.6,0.1,0.9C23,6.7,23.2,7,23.4,7.2c0.3-0.4,0.7-0.9,1-1.4
	C23.8,5.7,23.3,5.7,22.7,5.6z M20,0c-4.2,0-7.7,3.4-7.7,7.7c0,4.2,3.4,7.7,7.7,7.7s7.7-3.4,7.7-7.7C27.7,3.4,24.2,0,20,0z
	 M24.8,12.5c-0.4,0.4-1,0.7-1.7,0.7c-0.3,0-0.6-0.1-0.9-0.2c-0.4,1-1.3,1.5-2.2,1.5S18.2,14,17.8,13c-0.3,0.1-0.6,0.2-0.9,0.2
	c-0.7,0-1.3-0.3-1.7-0.7c-0.6-0.6-0.9-1.6-0.5-2.6c-1-0.4-1.5-1.3-1.5-2.2c0-0.8,0.5-1.8,1.5-2.2c-0.5-1-0.1-2,0.5-2.6
	c0.6-0.6,1.6-0.9,2.6-0.5c0.4-1,1.3-1.5,2.2-1.5s1.8,0.5,2.2,1.5c1-0.5,2-0.1,2.6,0.5c0.6,0.6,0.9,1.6,0.5,2.6
	c1,0.4,1.5,1.3,1.5,2.2c0,0.8-0.5,1.8-1.5,2.2C25.7,10.8,25.4,11.9,24.8,12.5z M25,6c-0.4,0.6-0.8,1.1-1.2,1.7
	c0.4,0.5,0.8,1.1,1.2,1.7c0.9-0.3,1.2-1.1,1.2-1.7C26.2,7.1,25.9,6.3,25,6z M18.3,12.7c0.3,0.9,1.1,1.2,1.7,1.2
	c0.6,0,1.4-0.3,1.7-1.2c-0.6-0.4-1.1-0.8-1.7-1.2C19.5,11.9,18.9,12.3,18.3,12.7z M20.2,10.5c-0.1,0-0.2,0-0.2,0s-0.2,0-0.2,0
	c0.1,0.1,0.2,0.1,0.2,0.2C20.1,10.6,20.2,10.6,20.2,10.5z M18.8,10.5c-0.3,0-0.6,0-0.9-0.1c0.1,0.5,0.2,1.1,0.3,1.6
	c0.5-0.3,0.9-0.6,1.4-1C19.3,10.9,19.1,10.7,18.8,10.5z M20.5,11.1c0.4,0.3,0.9,0.7,1.4,1c0.1-0.6,0.2-1.1,0.3-1.6
	c-0.3,0-0.6,0.1-0.9,0.1C20.9,10.7,20.7,10.9,20.5,11.1z M21.6,6.1c-0.2-0.2-0.4-0.4-0.7-0.6c-0.3,0-0.6,0-0.9,0s-0.6,0-0.9,0
	c-0.2,0.2-0.5,0.4-0.7,0.6c-0.2,0.2-0.4,0.4-0.6,0.7c0,0.3,0,0.6,0,0.9c0,0.3,0,0.6,0,0.9c0.2,0.2,0.4,0.5,0.6,0.7
	c0.2,0.2,0.4,0.4,0.7,0.6c0.3,0,0.6,0,0.9,0s0.6,0,0.9,0c0.2-0.2,0.5-0.4,0.7-0.6c0.2-0.2,0.4-0.4,0.6-0.7c0-0.3,0-0.6,0-0.9
	c0-0.3,0-0.6,0-0.9C22,6.5,21.8,6.3,21.6,6.1z M24.7,5.3c0.4-0.8,0.1-1.6-0.3-2c-0.3-0.3-0.7-0.5-1.3-0.5c-0.2,0-0.5,0.1-0.8,0.2
	c0.1,0.7,0.3,1.4,0.3,2C23.3,5.1,24,5.2,24.7,5.3z M21.8,9.9c0.1,0,0.2,0,0.3,0c0-0.1,0-0.2,0-0.3c-0.1,0.1-0.1,0.1-0.2,0.2
	C22,9.7,21.9,9.8,21.8,9.9z"/>
<g>
	<path class="st0" d="M15.5,18.3H14V18h3.4v0.4h-1.5v4.2h-0.4V18.3z"/>
	<path class="st0" d="M21.5,20.4h-2.9v2.2h-0.4V18h0.4v2h2.9v-2h0.4v4.6h-0.4V20.4z"/>
	<path class="st0" d="M23.1,18H26v0.4h-2.5V20h2.5v0.4h-2.5v1.8H26v0.4h-2.9V18z"/>
</g>
<g>
	<path class="st0" d="M0,25.3h1.4v3.4h1.7v1.2H0V25.3z"/>
	<path class="st0" d="M6,25.2c1.4,0,2.5,1,2.5,2.4c0,1.4-1.1,2.4-2.5,2.4c-1.4,0-2.5-1-2.5-2.4C3.5,26.2,4.6,25.2,6,25.2z M6,26.4
		c-0.7,0-1.1,0.5-1.1,1.1c0,0.6,0.4,1.1,1.1,1.1c0.7,0,1.1-0.5,1.1-1.1C7.1,26.9,6.7,26.4,6,26.4z"/>
	<path class="st0" d="M11.5,25.2c1.1,0,1.7,0.5,2,1.1l-1.2,0.6c-0.2-0.3-0.5-0.5-0.8-0.5c-0.7,0-1.1,0.5-1.1,1.1
		c0,0.6,0.4,1.1,1.1,1.1c0.3,0,0.6-0.1,0.7-0.2v-0.2h-0.9v-1.1h2.2V29c-0.5,0.6-1.2,0.9-2.1,0.9C10.2,29.9,9,29,9,27.6
		C9,26.1,10.2,25.2,11.5,25.2z"/>
	<path class="st0" d="M16.8,25.2c1.4,0,2.5,1,2.5,2.4c0,1.4-1.1,2.4-2.5,2.4c-1.4,0-2.5-1-2.5-2.4C14.2,26.2,15.3,25.2,16.8,25.2z
		 M16.8,26.4c-0.7,0-1.1,0.5-1.1,1.1c0,0.6,0.4,1.1,1.1,1.1c0.7,0,1.1-0.5,1.1-1.1C17.9,26.9,17.4,26.4,16.8,26.4z"/>
	<path class="st0" d="M21.2,25.1h0.9L20.5,30h-0.9L21.2,25.1z"/>
	<path class="st0" d="M22.7,25.3h1.4v4.6h-1.4V25.3z"/>
	<path class="st0" d="M24.8,27.6c0-1.4,1.1-2.4,2.5-2.4c1.2,0,1.8,0.7,2.1,1.3l-1.2,0.6c-0.1-0.4-0.5-0.7-0.9-0.7
		c-0.6,0-1.1,0.5-1.1,1.1c0,0.6,0.4,1.1,1.1,1.1c0.4,0,0.8-0.3,0.9-0.7l1.2,0.5c-0.3,0.6-0.9,1.3-2.1,1.3
		C25.9,29.9,24.8,29,24.8,27.6z"/>
	<path class="st0" d="M32.4,25.2c1.4,0,2.5,1,2.5,2.4c0,1.4-1.1,2.4-2.5,2.4c-1.4,0-2.5-1-2.5-2.4C29.8,26.2,30.9,25.2,32.4,25.2z
		 M32.4,26.4c-0.7,0-1.1,0.5-1.1,1.1c0,0.6,0.4,1.1,1.1,1.1c0.7,0,1.1-0.5,1.1-1.1C33.5,26.9,33,26.4,32.4,26.4z"/>
	<path class="st0" d="M37,27.4v2.5h-1.4v-4.6H37l1.6,2.3v-2.3H40v4.6h-1.3L37,27.4z"/>
</g>
</svg>
