<?xml version="1.0" encoding="utf-8"?>
<!-- Generator: Adobe Illustrator 25.2.3, SVG Export Plug-In . SVG Version: 6.00 Build 0)  -->
<svg version="1.1" id="Layer_1" xmlns="http://www.w3.org/2000/svg" xmlns:xlink="http://www.w3.org/1999/xlink" x="0px" y="0px"
	 viewBox="0 0 40 40" style="enable-background:new 0 0 40 40;" xml:space="preserve">
<style type="text/css">
	.st0{fill:#FCC00E;}
</style>
<path class="st0" d="M7,15.6c-2.3,0.7-3.1,2.8-3.1,4.4c0,1.6,0.8,3.6,3.1,4.4c1-1.5,2-3,3.1-4.4C9.1,18.6,8,17.1,7,15.6z M8.6,24.7
	c1.4,0.3,2.9,0.5,4.3,0.7c-0.1-0.8-0.2-1.6-0.2-2.4c-0.5-0.6-1-1.2-1.6-1.8C10.2,22.3,9.4,23.5,8.6,24.7z M12.1,20
	c0.2,0.2,0.4,0.4,0.5,0.6c0-0.2,0-0.4,0-0.6c0-0.2,0-0.4,0-0.6C12.4,19.6,12.2,19.8,12.1,20z M8.6,8.6c-1.1,1.1-2,3.2-0.9,5.3
	c1.8-0.4,3.5-0.7,5.3-0.9c0.2-1.8,0.5-3.5,0.9-5.3c-0.7-0.4-1.4-0.5-2-0.5C10.5,7.2,9.4,7.8,8.6,8.6z M8.6,15.3
	c0.8,1.2,1.7,2.4,2.5,3.5c0.5-0.6,1-1.2,1.6-1.8c0-0.8,0.1-1.6,0.2-2.4C11.4,14.7,10,15,8.6,15.3z M7.7,26.1
	c-1.1,2.1-0.3,4.2,0.9,5.3c1.1,1.1,3.2,2,5.3,0.9c-0.4-1.8-0.7-3.5-0.9-5.3C11.3,26.8,9.5,26.5,7.7,26.1z M23,12.7
	c0.8,0,1.6,0.1,2.4,0.2c-0.2-1.4-0.4-2.8-0.7-4.3c-1.2,0.8-2.4,1.7-3.5,2.5C21.8,11.6,22.4,12.1,23,12.7z M15.2,14.3
	c-0.3,0-0.6,0-0.8,0.1c0,0.3,0,0.6-0.1,0.8c0.1-0.2,0.3-0.3,0.4-0.5S15.1,14.5,15.2,14.3z M25.2,14.8c0.1,0.1,0.3,0.3,0.4,0.5
	c0-0.3,0-0.6-0.1-0.8c-0.3,0-0.6,0-0.8-0.1C24.9,14.5,25.1,14.6,25.2,14.8z M14.8,25.2c-0.1-0.1-0.3-0.3-0.4-0.5
	c0,0.3,0,0.6,0.1,0.8c0.3,0,0.6,0,0.8,0.1C15.1,25.5,14.9,25.4,14.8,25.2z M19.4,12.6c0.2,0,0.4,0,0.6,0s0.4,0,0.6,0
	c-0.2-0.2-0.4-0.4-0.6-0.5C19.8,12.2,19.6,12.4,19.4,12.6z M24.4,7c-0.7-2.3-2.8-3.1-4.4-3.1c-1.6,0-3.6,0.8-4.4,3.1
	c1.5,1,3,2,4.4,3.1C21.4,9.1,22.9,8,24.4,7z M18.8,11.1c-1.1-0.9-2.3-1.7-3.5-2.5c-0.3,1.4-0.5,2.9-0.7,4.3c0.8-0.1,1.6-0.2,2.4-0.2
	C17.6,12.1,18.2,11.6,18.8,11.1z M27.9,20c-0.2-0.2-0.4-0.4-0.5-0.6c0,0.2,0,0.4,0,0.6c0,0.2,0,0.4,0,0.6
	C27.6,20.4,27.8,20.2,27.9,20z M27.1,25.4c1.4-0.2,2.8-0.4,4.3-0.7c-0.8-1.2-1.7-2.4-2.5-3.5c-0.5,0.6-1,1.2-1.6,1.8
	C27.3,23.8,27.2,24.6,27.1,25.4z M27,27c-0.2,1.8-0.5,3.5-0.9,5.3c2.1,1.1,4.2,0.3,5.3-0.9c1.1-1.1,2-3.2,0.9-5.3
	C30.5,26.5,28.7,26.8,27,27z M27.1,14.6c0.1,0.8,0.2,1.6,0.2,2.4c0.5,0.6,1,1.2,1.6,1.8c0.9-1.1,1.7-2.3,2.5-3.5
	C30,15,28.6,14.7,27.1,14.6z M20,0C9,0,0,9,0,20c0,11,9,20,20,20s20-9,20-20C40,9,31,0,20,0z M32.5,32.5c-1.1,1.1-2.6,1.8-4.3,1.8
	c-0.8,0-1.6-0.2-2.4-0.5c-1,2.6-3.5,3.9-5.7,3.9s-4.7-1.2-5.7-3.9c-0.8,0.4-1.6,0.5-2.4,0.5c-1.7,0-3.3-0.8-4.3-1.8
	c-1.6-1.6-2.5-4.2-1.3-6.8c-2.7-1-3.9-3.5-3.9-5.7c0-2.2,1.2-4.7,3.9-5.7C5.1,11.7,6,9.1,7.5,7.5c1.6-1.6,4.2-2.5,6.8-1.3
	c1-2.7,3.5-3.9,5.7-3.9s4.7,1.2,5.7,3.9c2.6-1.2,5.2-0.3,6.8,1.3s2.5,4.2,1.3,6.8c2.7,1,3.9,3.5,3.9,5.7c0,2.2-1.2,4.7-3.9,5.7
	C34.9,28.3,34,30.9,32.5,32.5z M33,15.6c-1,1.5-2,3-3.1,4.4c1.1,1.4,2.1,2.9,3.1,4.4c2.3-0.7,3.1-2.8,3.1-4.4
	C36.1,18.4,35.3,16.4,33,15.6z M15.6,33c0.7,2.3,2.8,3.1,4.4,3.1c1.6,0,3.6-0.8,4.4-3.1c-1.5-1-3-2-4.4-3.1
	C18.6,30.9,17.1,32,15.6,33z M20.6,27.4c-0.2,0-0.4,0-0.6,0s-0.4,0-0.6,0c0.2,0.2,0.4,0.4,0.6,0.5C20.2,27.8,20.4,27.6,20.6,27.4z
	 M17,27.3c-0.8,0-1.6-0.1-2.4-0.2c0.2,1.4,0.4,2.8,0.7,4.3c1.2-0.8,2.4-1.7,3.5-2.5C18.2,28.4,17.6,27.9,17,27.3z M21.2,28.9
	c1.1,0.9,2.3,1.7,3.5,2.5c0.3-1.4,0.5-2.9,0.7-4.3c-0.8,0.1-1.6,0.2-2.4,0.2C22.4,27.9,21.8,28.4,21.2,28.9z M24.2,15.8
	c-0.6-0.6-1.2-1.1-1.8-1.7c-0.8,0-1.6-0.1-2.4-0.1s-1.6,0-2.4,0.1c-0.6,0.5-1.2,1.1-1.8,1.7c-0.6,0.6-1.1,1.2-1.7,1.8
	c0,0.8-0.1,1.6-0.1,2.4c0,0.8,0,1.6,0.1,2.4c0.5,0.6,1.1,1.2,1.7,1.8c0.6,0.6,1.2,1.1,1.8,1.7c0.8,0,1.6,0.1,2.4,0.1s1.6,0,2.4-0.1
	c0.6-0.5,1.2-1.1,1.8-1.7c0.6-0.6,1.1-1.2,1.7-1.8c0-0.8,0.1-1.6,0.1-2.4c0-0.8,0-1.6-0.1-2.4C25.3,17,24.8,16.4,24.2,15.8z
	 M32.3,13.9c1.1-2.1,0.3-4.2-0.9-5.3c-0.8-0.8-1.9-1.4-3.3-1.4c-0.7,0-1.3,0.2-2,0.5c0.4,1.8,0.7,3.6,0.9,5.3
	C28.7,13.2,30.5,13.5,32.3,13.9z M24.8,25.7c0.3,0,0.6,0,0.8-0.1c0-0.3,0-0.6,0.1-0.8c-0.1,0.2-0.3,0.3-0.4,0.5
	C25.1,25.4,24.9,25.5,24.8,25.7z"/>
</svg>
